<svg width="479" height="465" viewBox="0 0 479 465" fill="none" xmlns="http://www.w3.org/2000/svg">
<circle cx="237" cy="233" r="224.5" stroke="#05588E" stroke-opacity="0.22"/>
<rect y="261" width="40" height="40" rx="20" fill="white"/>
<rect x="0.5" y="261.5" width="39" height="39" rx="19.5" stroke="#05588E" stroke-opacity="0.22"/>
<path d="M14.4769 291H10.3304V277.647H14.4769V291ZM12.4014 275.826C11.0755 275.826 10 274.727 10 273.401C10 272.765 10.253 272.154 10.7034 271.703C11.1537 271.253 11.7645 271 12.4014 271C13.0383 271 13.6491 271.253 14.0994 271.703C14.5498 272.154 14.8028 272.765 14.8028 273.401C14.8028 274.727 13.7269 275.826 12.4014 275.826ZM29.996 291H25.8584V284.5C25.8584 282.951 25.8271 280.964 23.7025 280.964C21.5467 280.964 21.2163 282.647 21.2163 284.388V291H17.0743V277.647H21.0511V279.468H21.1092C21.6628 278.419 23.015 277.312 25.0325 277.312C29.229 277.312 30.0005 280.076 30.0005 283.665V291H29.996Z" fill="#17162B"/>
<rect x="287" y="425" width="40" height="40" rx="20" fill="white"/>
<rect x="287.5" y="425.5" width="39" height="39" rx="19.5" stroke="#05588E" stroke-opacity="0.22"/>
<g clip-path="url(#clip0_30215_1328)">
<path d="M307 435.161C310.206 435.161 310.586 435.175 311.847 435.231C313.019 435.283 313.652 435.48 314.073 435.644C314.631 435.859 315.034 436.122 315.452 436.539C315.873 436.961 316.131 437.359 316.347 437.917C316.511 438.339 316.708 438.977 316.759 440.144C316.816 441.409 316.83 441.789 316.83 444.991C316.83 448.197 316.816 448.577 316.759 449.838C316.708 451.009 316.511 451.642 316.347 452.064C316.131 452.622 315.869 453.025 315.452 453.442C315.03 453.864 314.631 454.122 314.073 454.338C313.652 454.502 313.014 454.698 311.847 454.75C310.581 454.806 310.202 454.82 307 454.82C303.794 454.82 303.414 454.806 302.153 454.75C300.981 454.698 300.348 454.502 299.927 454.338C299.369 454.122 298.966 453.859 298.548 453.442C298.127 453.02 297.869 452.622 297.653 452.064C297.489 451.642 297.292 451.005 297.241 449.838C297.184 448.572 297.17 448.192 297.17 444.991C297.17 441.784 297.184 441.405 297.241 440.144C297.292 438.972 297.489 438.339 297.653 437.917C297.869 437.359 298.131 436.956 298.548 436.539C298.97 436.117 299.369 435.859 299.927 435.644C300.348 435.48 300.986 435.283 302.153 435.231C303.414 435.175 303.794 435.161 307 435.161ZM307 433C303.742 433 303.334 433.014 302.055 433.07C300.78 433.127 299.903 433.333 299.144 433.628C298.352 433.937 297.681 434.345 297.016 435.016C296.345 435.681 295.938 436.352 295.628 437.139C295.333 437.903 295.127 438.775 295.07 440.05C295.014 441.334 295 441.742 295 445C295 448.258 295.014 448.666 295.07 449.945C295.127 451.22 295.333 452.097 295.628 452.856C295.938 453.648 296.345 454.319 297.016 454.984C297.681 455.65 298.352 456.062 299.139 456.367C299.903 456.663 300.775 456.869 302.05 456.925C303.33 456.981 303.738 456.995 306.995 456.995C310.253 456.995 310.661 456.981 311.941 456.925C313.216 456.869 314.092 456.663 314.852 456.367C315.639 456.062 316.309 455.65 316.975 454.984C317.641 454.319 318.053 453.648 318.358 452.861C318.653 452.097 318.859 451.225 318.916 449.95C318.972 448.67 318.986 448.263 318.986 445.005C318.986 441.747 318.972 441.339 318.916 440.059C318.859 438.784 318.653 437.908 318.358 437.148C318.062 436.352 317.655 435.681 316.984 435.016C316.319 434.35 315.648 433.938 314.861 433.633C314.097 433.337 313.225 433.131 311.95 433.075C310.666 433.014 310.258 433 307 433Z" fill="#17162B"/>
<path d="M307 438.836C303.597 438.836 300.836 441.597 300.836 445C300.836 448.403 303.597 451.164 307 451.164C310.403 451.164 313.164 448.403 313.164 445C313.164 441.597 310.403 438.836 307 438.836ZM307 448.999C304.792 448.999 303.002 447.208 303.002 445C303.002 442.792 304.792 441.002 307 441.002C309.208 441.002 310.998 442.792 310.998 445C310.998 447.208 309.208 448.999 307 448.999Z" fill="#17162B"/>
<path d="M314.847 438.592C314.847 439.389 314.2 440.031 313.408 440.031C312.611 440.031 311.969 439.384 311.969 438.592C311.969 437.795 312.616 437.153 313.408 437.153C314.2 437.153 314.847 437.8 314.847 438.592Z" fill="#17162B"/>
</g>
<rect x="439" y="174" width="40" height="40" rx="20" fill="white"/>
<rect x="439.5" y="174.5" width="39" height="39" rx="19.5" stroke="#05588E" stroke-opacity="0.22"/>
<g clip-path="url(#clip1_30215_1328)">
<path d="M454.55 203.75C463.605 203.75 468.558 196.247 468.558 189.742C468.558 189.531 468.554 189.315 468.544 189.104C469.508 188.407 470.339 187.544 471 186.555C470.103 186.955 469.15 187.215 468.174 187.329C469.201 186.713 469.971 185.745 470.339 184.606C469.373 185.179 468.316 185.583 467.213 185.801C466.471 185.012 465.489 184.489 464.42 184.314C463.35 184.139 462.253 184.321 461.298 184.832C460.342 185.343 459.582 186.155 459.134 187.141C458.686 188.128 458.575 189.235 458.82 190.29C456.862 190.192 454.948 189.684 453.2 188.798C451.452 187.912 449.91 186.669 448.673 185.149C448.044 186.233 447.852 187.516 448.135 188.736C448.418 189.957 449.155 191.023 450.196 191.72C449.415 191.695 448.65 191.485 447.966 191.106V191.167C447.965 192.304 448.358 193.407 449.078 194.287C449.799 195.167 450.801 195.771 451.916 195.995C451.192 196.193 450.432 196.222 449.695 196.079C450.009 197.057 450.622 197.913 451.446 198.526C452.27 199.14 453.265 199.481 454.292 199.501C452.548 200.871 450.394 201.614 448.177 201.611C447.783 201.61 447.39 201.586 447 201.538C449.253 202.984 451.874 203.751 454.55 203.75Z" fill="#17162B"/>
</g>
<rect x="143" width="40" height="40" rx="20" fill="white"/>
<rect x="143.5" y="0.5" width="39" height="39" rx="19.5" stroke="#05588E" stroke-opacity="0.22"/>
<g clip-path="url(#clip2_30215_1328)">
<path d="M175 20C175 13.3726 169.627 8 163 8C156.373 8 151 13.3726 151 20C151 25.9895 155.388 30.954 161.125 31.8542V23.4688H158.078V20H161.125V17.3563C161.125 14.3488 162.917 12.6875 165.658 12.6875C166.97 12.6875 168.344 12.9219 168.344 12.9219V15.875H166.831C165.34 15.875 164.875 16.8001 164.875 17.75V20H168.203L167.671 23.4688H164.875V31.8542C170.612 30.954 175 25.9895 175 20Z" fill="#17162B"/>
</g>
<defs>
<clipPath id="clip0_30215_1328">
<rect width="24" height="24" fill="white" transform="translate(295 433)"/>
</clipPath>
<clipPath id="clip1_30215_1328">
<rect width="24" height="24" fill="white" transform="translate(447 182)"/>
</clipPath>
<clipPath id="clip2_30215_1328">
<rect width="24" height="24" fill="white" transform="translate(151 8)"/>
</clipPath>
</defs>
</svg>
