<svg width="25" height="24" viewBox="0 0 25 24" fill="none" xmlns="http://www.w3.org/2000/svg">
<g clip-path="url(#clip0_30218_2764)">
<path d="M12.8379 2.16094C16.0441 2.16094 16.4238 2.175 17.6848 2.23125C18.8566 2.28281 19.4895 2.47969 19.9113 2.64375C20.4691 2.85938 20.8723 3.12188 21.2895 3.53906C21.7113 3.96094 21.9691 4.35938 22.1848 4.91719C22.3488 5.33906 22.5457 5.97656 22.5973 7.14375C22.6535 8.40937 22.6676 8.78906 22.6676 11.9906C22.6676 15.1969 22.6535 15.5766 22.5973 16.8375C22.5457 18.0094 22.3488 18.6422 22.1848 19.0641C21.9691 19.6219 21.7066 20.025 21.2895 20.4422C20.8676 20.8641 20.4691 21.1219 19.9113 21.3375C19.4895 21.5016 18.852 21.6984 17.6848 21.75C16.4191 21.8062 16.0395 21.8203 12.8379 21.8203C9.63164 21.8203 9.25195 21.8062 7.99102 21.75C6.81914 21.6984 6.18633 21.5016 5.76445 21.3375C5.20664 21.1219 4.80352 20.8594 4.38633 20.4422C3.96445 20.0203 3.70664 19.6219 3.49102 19.0641C3.32695 18.6422 3.13008 18.0047 3.07852 16.8375C3.02227 15.5719 3.0082 15.1922 3.0082 11.9906C3.0082 8.78438 3.02227 8.40469 3.07852 7.14375C3.13008 5.97187 3.32695 5.33906 3.49102 4.91719C3.70664 4.35938 3.96914 3.95625 4.38633 3.53906C4.8082 3.11719 5.20664 2.85938 5.76445 2.64375C6.18633 2.47969 6.82383 2.28281 7.99102 2.23125C9.25195 2.175 9.63164 2.16094 12.8379 2.16094ZM12.8379 0C9.58008 0 9.17227 0.0140625 7.89258 0.0703125C6.61758 0.126563 5.74102 0.332812 4.98164 0.628125C4.18945 0.9375 3.51914 1.34531 2.85352 2.01562C2.1832 2.68125 1.77539 3.35156 1.46602 4.13906C1.1707 4.90313 0.964453 5.775 0.908203 7.05C0.851953 8.33437 0.837891 8.74219 0.837891 12C0.837891 15.2578 0.851953 15.6656 0.908203 16.9453C0.964453 18.2203 1.1707 19.0969 1.46602 19.8563C1.77539 20.6484 2.1832 21.3188 2.85352 21.9844C3.51914 22.65 4.18945 23.0625 4.97695 23.3672C5.74102 23.6625 6.61289 23.8687 7.88789 23.925C9.16758 23.9812 9.57539 23.9953 12.8332 23.9953C16.091 23.9953 16.4988 23.9812 17.7785 23.925C19.0535 23.8687 19.9301 23.6625 20.6895 23.3672C21.477 23.0625 22.1473 22.65 22.8129 21.9844C23.4785 21.3188 23.891 20.6484 24.1957 19.8609C24.491 19.0969 24.6973 18.225 24.7535 16.95C24.8098 15.6703 24.8238 15.2625 24.8238 12.0047C24.8238 8.74688 24.8098 8.33906 24.7535 7.05938C24.6973 5.78438 24.491 4.90781 24.1957 4.14844C23.9004 3.35156 23.4926 2.68125 22.8223 2.01562C22.1566 1.35 21.4863 0.9375 20.6988 0.632812C19.9348 0.3375 19.0629 0.13125 17.7879 0.075C16.5035 0.0140625 16.0957 0 12.8379 0Z" fill="white"/>
<path d="M12.8379 5.83612C9.43477 5.83612 6.67383 8.59706 6.67383 12.0002C6.67383 15.4033 9.43477 18.1642 12.8379 18.1642C16.241 18.1642 19.002 15.4033 19.002 12.0002C19.002 8.59706 16.241 5.83612 12.8379 5.83612ZM12.8379 15.9986C10.6301 15.9986 8.83945 14.208 8.83945 12.0002C8.83945 9.79237 10.6301 8.00175 12.8379 8.00175C15.0457 8.00175 16.8363 9.79237 16.8363 12.0002C16.8363 14.208 15.0457 15.9986 12.8379 15.9986Z" fill="white"/>
<path d="M20.6848 5.59214C20.6848 6.38902 20.0379 7.0312 19.2457 7.0312C18.4488 7.0312 17.8066 6.38433 17.8066 5.59214C17.8066 4.79526 18.4535 4.15308 19.2457 4.15308C20.0379 4.15308 20.6848 4.79995 20.6848 5.59214Z" fill="white"/>
</g>
<defs>
<clipPath id="clip0_30218_2764">
<rect width="24" height="24" fill="white" transform="translate(0.837891)"/>
</clipPath>
</defs>
</svg>
