<svg width="17" height="16" viewBox="0 0 17 16" fill="none" xmlns="http://www.w3.org/2000/svg">
<g clip-path="url(#clip0_30218_2184)">
<path d="M8.80002 1.44062C10.9375 1.44062 11.1906 1.45 12.0313 1.4875C12.8125 1.52187 13.2344 1.65313 13.5156 1.7625C13.8875 1.90625 14.1563 2.08125 14.4344 2.35938C14.7156 2.64062 14.8875 2.90625 15.0313 3.27813C15.1406 3.55938 15.2719 3.98438 15.3063 4.7625C15.3438 5.60625 15.3531 5.85938 15.3531 7.99375C15.3531 10.1313 15.3438 10.3844 15.3063 11.225C15.2719 12.0063 15.1406 12.4281 15.0313 12.7094C14.8875 13.0813 14.7125 13.35 14.4344 13.6281C14.1531 13.9094 13.8875 14.0813 13.5156 14.225C13.2344 14.3344 12.8094 14.4656 12.0313 14.5C11.1875 14.5375 10.9344 14.5469 8.80002 14.5469C6.66252 14.5469 6.40939 14.5375 5.56877 14.5C4.78752 14.4656 4.36564 14.3344 4.08439 14.225C3.71252 14.0813 3.44377 13.9063 3.16564 13.6281C2.88439 13.3469 2.71252 13.0813 2.56877 12.7094C2.45939 12.4281 2.32814 12.0031 2.29377 11.225C2.25627 10.3813 2.24689 10.1281 2.24689 7.99375C2.24689 5.85625 2.25627 5.60313 2.29377 4.7625C2.32814 3.98125 2.45939 3.55938 2.56877 3.27813C2.71252 2.90625 2.88752 2.6375 3.16564 2.35938C3.44689 2.07812 3.71252 1.90625 4.08439 1.7625C4.36564 1.65313 4.79064 1.52187 5.56877 1.4875C6.40939 1.45 6.66252 1.44062 8.80002 1.44062ZM8.80002 0C6.62814 0 6.35627 0.009375 5.50314 0.046875C4.65314 0.084375 4.06877 0.221875 3.56252 0.41875C3.03439 0.625 2.58752 0.896875 2.14377 1.34375C1.69689 1.7875 1.42502 2.23438 1.21877 2.75938C1.02189 3.26875 0.884393 3.85 0.846893 4.7C0.809393 5.55625 0.800018 5.82812 0.800018 8C0.800018 10.1719 0.809393 10.4438 0.846893 11.2969C0.884393 12.1469 1.02189 12.7313 1.21877 13.2375C1.42502 13.7656 1.69689 14.2125 2.14377 14.6562C2.58752 15.1 3.03439 15.375 3.55939 15.5781C4.06877 15.775 4.65002 15.9125 5.50002 15.95C6.35314 15.9875 6.62502 15.9969 8.79689 15.9969C10.9688 15.9969 11.2406 15.9875 12.0938 15.95C12.9438 15.9125 13.5281 15.775 14.0344 15.5781C14.5594 15.375 15.0063 15.1 15.45 14.6562C15.8938 14.2125 16.1688 13.7656 16.3719 13.2406C16.5688 12.7313 16.7063 12.15 16.7438 11.3C16.7813 10.4469 16.7906 10.175 16.7906 8.00313C16.7906 5.83125 16.7813 5.55938 16.7438 4.70625C16.7063 3.85625 16.5688 3.27188 16.3719 2.76562C16.175 2.23438 15.9031 1.7875 15.4563 1.34375C15.0125 0.9 14.5656 0.625 14.0406 0.421875C13.5313 0.225 12.95 0.0875 12.1 0.05C11.2438 0.009375 10.9719 0 8.80002 0Z" fill="#E84922"/>
<path d="M8.80002 3.89062C6.53127 3.89062 4.69064 5.73125 4.69064 8C4.69064 10.2688 6.53127 12.1094 8.80002 12.1094C11.0688 12.1094 12.9094 10.2688 12.9094 8C12.9094 5.73125 11.0688 3.89062 8.80002 3.89062ZM8.80002 10.6656C7.32814 10.6656 6.13439 9.47188 6.13439 8C6.13439 6.52813 7.32814 5.33438 8.80002 5.33438C10.2719 5.33438 11.4656 6.52813 11.4656 8C11.4656 9.47188 10.2719 10.6656 8.80002 10.6656Z" fill="#E84922"/>
<path d="M14.0313 3.72842C14.0313 4.25967 13.6 4.6878 13.0719 4.6878C12.5406 4.6878 12.1125 4.25655 12.1125 3.72842C12.1125 3.19717 12.5438 2.76904 13.0719 2.76904C13.6 2.76904 14.0313 3.20029 14.0313 3.72842Z" fill="#E84922"/>
</g>
<defs>
<clipPath id="clip0_30218_2184">
<rect width="16" height="16" fill="white" transform="translate(0.800018)"/>
</clipPath>
</defs>
</svg>
