<svg width="179" height="36" viewBox="0 0 179 36" fill="none" xmlns="http://www.w3.org/2000/svg">
<circle cx="174.75" cy="24.75" r="3.75" fill="#E84922"/>
<path d="M2.97053 21.348V18.4844L16.5728 12.2003V15.7301L6.90803 19.8764L7.0174 19.6875V20.1449L6.90803 19.956L16.5728 24.1023V27.6321L2.97053 21.348ZM29.3572 6.68182L22.7947 31.0625H19.6428L26.2053 6.68182H29.3572ZM46.022 21.348L32.4197 27.6321V24.1023L42.0845 19.956L41.9751 20.1449V19.6875L42.0845 19.8764L32.4197 15.7301V12.2003L46.022 18.4844V21.348Z" fill="#E84922"/>
<path d="M55.352 28V7.588H63.836C68.204 7.588 71.06 9.996 71.06 14.168C71.06 18.144 68.372 20.832 63.836 20.832L59.048 20.804V28H55.352ZM63.22 10.752H59.048V17.892L63.22 17.92C65.516 17.92 67.28 16.884 67.28 14.308C67.28 11.732 65.516 10.752 63.22 10.752Z" fill="#E84922"/>
<path d="M73.6065 28V7.588H77.1065V15.932H77.2745C78.1145 13.888 80.0185 12.824 82.1745 12.824C85.1985 12.824 87.4665 14.56 87.4665 19.068V28H83.9665V19.824C83.9665 17.024 83.0145 15.708 80.8305 15.708C78.4785 15.708 77.1065 17.556 77.1065 19.796V28H73.6065ZM96.1471 28.252C92.5631 28.252 90.1551 25.592 90.1551 20.552C90.1551 15.484 92.5631 12.824 96.1471 12.824C98.5551 12.824 100.347 14.028 101.075 15.848H101.271L101.411 13.104H104.771V28H101.271V25.228H101.075C100.347 27.048 98.5551 28.252 96.1471 28.252ZM97.4631 25.396C99.9551 25.396 101.215 23.408 101.215 21.308V19.768C101.215 17.64 99.9551 15.68 97.4631 15.68C95.2231 15.68 93.7111 17.276 93.7111 20.552C93.7111 23.8 95.2231 25.396 97.4631 25.396ZM114.548 28.252C110.04 28.252 107.436 25.228 107.436 20.636C107.436 15.848 110.096 12.824 114.436 12.824C119.308 12.824 121.66 16.352 121.24 21.28H110.852C110.88 24.136 112.336 25.592 114.548 25.592C116.312 25.592 117.516 24.696 117.852 23.352H121.156C120.764 26.376 118.104 28.252 114.548 28.252ZM114.436 15.484C112.392 15.484 111.076 16.744 110.88 19.012H117.796C117.712 16.604 116.368 15.484 114.436 15.484ZM129.397 28.252C125.813 28.252 123.405 25.592 123.405 20.552C123.405 15.484 125.813 12.824 129.397 12.824C131.805 12.824 133.597 14.028 134.325 15.848H134.521V7.588H138.021L137.993 28H134.633L134.521 25.228H134.325C133.597 27.048 131.805 28.252 129.397 28.252ZM130.713 25.396C133.205 25.396 134.465 23.408 134.465 21.308V19.768C134.465 17.64 133.205 15.68 130.713 15.68C128.473 15.68 126.961 17.276 126.961 20.552C126.961 23.8 128.473 25.396 130.713 25.396ZM141.774 28V13.104H144.938L145.106 15.596H145.218C145.89 13.692 147.514 12.908 149.446 12.908C149.782 12.908 150.062 12.908 150.314 12.908V16.212C150.09 16.212 149.754 16.184 149.39 16.184C146.674 16.184 145.386 17.528 145.274 19.852V28H141.774ZM157.315 28.252C153.731 28.252 151.323 25.592 151.323 20.552C151.323 15.484 153.731 12.824 157.315 12.824C159.723 12.824 161.515 14.028 162.243 15.848H162.439L162.579 13.104H165.939V28H162.439V25.228H162.243C161.515 27.048 159.723 28.252 157.315 28.252ZM158.631 25.396C161.123 25.396 162.383 23.408 162.383 21.308V19.768C162.383 17.64 161.123 15.68 158.631 15.68C156.391 15.68 154.879 17.276 154.879 20.552C154.879 23.8 156.391 25.396 158.631 25.396Z" fill="#17162B"/>
</svg>
