<svg width="64" height="64" viewBox="0 0 64 64" fill="none" xmlns="http://www.w3.org/2000/svg">
<path d="M34.3229 16.8692C37.5226 17.4054 40.4292 18.9167 42.7495 21.2323C45.0699 23.548 46.5721 26.4486 47.1216 29.6418M34.8114 6.40002C40.5025 7.36284 45.6928 10.0563 49.8206 14.1635C53.9485 18.2829 56.6352 23.4626 57.6 29.142M53.1546 51.7378C53.1546 51.7378 50.0648 54.7725 49.3076 55.6622C48.0742 56.9784 46.6209 57.6 44.7157 57.6C44.5325 57.6 44.3371 57.6 44.1539 57.5878C40.5268 57.3563 37.1562 55.9425 34.6282 54.7359C27.7159 51.3965 21.6462 46.6556 16.6025 40.6471C12.438 35.638 9.65355 31.0067 7.80946 26.0342C6.67369 22.9995 6.25847 20.6351 6.44165 18.4048C6.56378 16.9788 7.11334 15.7966 8.12698 14.7851L12.2915 10.6291C12.8899 10.0685 13.5249 9.76379 14.1478 9.76379C14.9171 9.76379 15.54 10.2269 15.9308 10.6169C15.943 10.6291 15.9552 10.6413 15.9674 10.6535C16.7124 11.3482 17.4207 12.0672 18.1657 12.8351C18.5443 13.2251 18.9351 13.6151 19.3259 14.0173L22.6599 17.3445C23.9544 18.6363 23.9544 19.8307 22.6599 21.1226C22.3057 21.476 21.9638 21.8295 21.6096 22.1707C20.5838 23.2189 21.3896 22.4146 20.3271 23.3653C20.3027 23.3897 20.2783 23.4018 20.2661 23.4262C19.2158 24.4743 19.4112 25.4981 19.631 26.1928C19.6432 26.2294 19.6554 26.2659 19.6677 26.3025C20.5347 28.3987 21.756 30.3731 23.6123 32.7253L23.6245 32.7375C26.9952 36.8813 30.549 40.111 34.4692 42.5851C34.97 42.902 35.4829 43.1579 35.9714 43.4016C36.411 43.621 36.8263 43.8282 37.1804 44.0476C37.2293 44.072 37.2781 44.1085 37.327 44.1329C37.7422 44.3401 38.133 44.4376 38.536 44.4376C39.5496 44.4376 40.1847 43.8038 40.3923 43.5966L42.7861 41.2077C43.2014 40.7933 43.8608 40.2937 44.6302 40.2937C45.3874 40.2937 46.0102 40.769 46.3888 41.1834C46.401 41.1955 46.401 41.1955 46.4133 41.2077L53.1423 47.9231C54.4002 49.1662 53.1546 51.7378 53.1546 51.7378Z" stroke="#758599" stroke-width="5.33333" stroke-linecap="round" stroke-linejoin="round"/>
</svg>
