<svg width="13" height="9" viewBox="0 0 13 9" fill="none" xmlns="http://www.w3.org/2000/svg">
<path d="M12.0629 4.03165C12.1944 4.15189 12.2693 4.3218 12.2693 4.5C12.2693 4.6782 12.1944 4.84811 12.0629 4.96835L8.36098 8.353C8.10231 8.5895 7.70089 8.57153 7.46439 8.31286C7.22789 8.05418 7.24583 7.65277 7.5045 7.41627L10.0001 5.13462H0.634619C0.284132 5.13462 0 4.85048 0 4.5C0 4.14952 0.284132 3.86538 0.634619 3.86538L10.0001 3.86538L7.5045 1.58371C7.24583 1.34721 7.22789 0.94579 7.46439 0.687119C7.70089 0.428449 8.10231 0.41051 8.36098 0.647012L12.0629 4.03165Z" fill="#17162B"/>
</svg>
