<svg width="12" height="11" viewBox="0 0 12 11" fill="none" xmlns="http://www.w3.org/2000/svg">
<path d="M5.33426 1.04893C5.54381 0.404017 6.45619 0.404018 6.66574 1.04894L7.41444 3.35319C7.50815 3.64161 7.77692 3.83688 8.08018 3.83688H10.503C11.1811 3.83688 11.4631 4.70461 10.9145 5.10319L8.95435 6.5273C8.70901 6.70555 8.60635 7.02151 8.70006 7.30993L9.44876 9.61418C9.6583 10.2591 8.92017 10.7954 8.37157 10.3968L6.41145 8.9727C6.16611 8.79445 5.83389 8.79445 5.58855 8.9727L3.62843 10.3968C3.07983 10.7954 2.3417 10.2591 2.55124 9.61418L3.29994 7.30993C3.39365 7.02151 3.29099 6.70555 3.04565 6.5273L1.08553 5.10319C0.536932 4.70461 0.818876 3.83688 1.49698 3.83688H3.91982C4.22308 3.83688 4.49185 3.64161 4.58556 3.35319L5.33426 1.04893Z" fill="#FFA800"/>
</svg>
