<svg width="15" height="16" viewBox="0 0 15 16" fill="none" xmlns="http://www.w3.org/2000/svg">
<path d="M3.22339 15.1998H0.237893V5.58566H3.22339V15.1998ZM1.72903 4.2742C0.774369 4.2742 3.05176e-05 3.48347 3.05176e-05 2.5288C3.05244e-05 2.07024 0.182193 1.63047 0.506443 1.30622C0.830694 0.981967 1.27047 0.799805 1.72903 0.799805C2.1876 0.799805 2.62737 0.981967 2.95163 1.30622C3.27588 1.63047 3.45804 2.07024 3.45804 2.5288C3.45804 3.48347 2.68337 4.2742 1.72903 4.2742ZM14.3972 15.1998H11.4181V10.5197C11.4181 9.40432 11.3956 7.97393 9.86583 7.97393C8.31365 7.97393 8.07578 9.18574 8.07578 10.4393V15.1998H5.0935V5.58566H7.95685V6.89712H7.99864C8.39722 6.14175 9.37083 5.34459 10.8234 5.34459C13.8449 5.34459 14.4004 7.33427 14.4004 9.9186V15.1998H14.3972Z" fill="#E84922"/>
</svg>
