<svg width="17" height="16" viewBox="0 0 17 16" fill="none" xmlns="http://www.w3.org/2000/svg">
<g clip-path="url(#clip0_30218_2186)">
<path d="M5.63344 14.5C11.6697 14.5 14.9722 9.4978 14.9722 5.16124C14.9722 5.02062 14.9691 4.87687 14.9628 4.73624C15.6053 4.27164 16.1597 3.69617 16.6 3.03687C16.0017 3.30307 15.3664 3.47692 14.7159 3.55249C15.4009 3.14194 15.9137 2.49698 16.1594 1.73718C15.515 2.11904 14.8104 2.38841 14.0756 2.53374C13.5806 2.00771 12.926 1.65941 12.2131 1.5427C11.5003 1.42599 10.7688 1.54737 10.1318 1.88806C9.49487 2.22876 8.98787 2.7698 8.68924 3.42754C8.3906 4.08528 8.31696 4.82308 8.47969 5.52687C7.175 5.46139 5.89863 5.12247 4.73333 4.53207C3.56802 3.94166 2.5398 3.11296 1.71532 2.09968C1.29627 2.82216 1.16804 3.6771 1.35669 4.49073C1.54534 5.30436 2.03671 6.01563 2.73094 6.47999C2.20976 6.46344 1.69999 6.32312 1.24376 6.07062V6.11124C1.24329 6.86943 1.5054 7.60439 1.98555 8.19118C2.46569 8.77797 3.13422 9.18037 3.87751 9.32999C3.39471 9.46209 2.88799 9.48133 2.39657 9.38624C2.60631 10.0383 3.01439 10.6086 3.56385 11.0176C4.11332 11.4265 4.77675 11.6537 5.46157 11.6675C4.29896 12.5807 2.86279 13.0761 1.38438 13.0737C1.1222 13.0733 0.860272 13.0573 0.600006 13.0256C2.10191 13.9892 3.84903 14.5009 5.63344 14.5Z" fill="#E84922"/>
</g>
<defs>
<clipPath id="clip0_30218_2186">
<rect width="16" height="16" fill="white" transform="translate(0.600037)"/>
</clipPath>
</defs>
</svg>
